<?xml version="1.0" encoding="utf-8"?>
<!-- Generator: Adobe Illustrator 16.0.0, SVG Export Plug-In . SVG Version: 6.00 Build 0)  -->
<!DOCTYPE svg PUBLIC "-//W3C//DTD SVG 1.1//EN" "http://www.w3.org/Graphics/SVG/1.1/DTD/svg11.dtd">
<svg version="1.1" id="Capa_1" xmlns="http://www.w3.org/2000/svg" xmlns:xlink="http://www.w3.org/1999/xlink" x="0px" y="0px"
	 width="100px" height="200px" viewBox="0 0 100 200" style="enable-background:new 0 0 100 200;" xml:space="preserve">
<style type="text/css">
<![CDATA[
	.st0{fill:#5555FF;}
	.st1{fill:#FF5555;}
	.st2{fill:#FFAA00;}
	.st3{fill:#FFFFFF;}
	.st4{fill:none;stroke:#FFFFFF;stroke-width:1.8427;}
	.st5{fill:#FFFFFF;stroke:#000000;stroke-width:0.9213;}
	.st6{fill:#00AA00;}
]]>
</style>
<g id="g9888-0-5-0" transform="translate(0,1080)">
	<path id="rect2987-8-5-81-2-4-9-82" class="st5" d="M18.7-1075.5h63.4c8.8,0,15.9,9.6,15.9,21.4v149.9c0,11.8-7.1,21.4-15.9,21.4
		H18.7c-8.8,0-15.9-9.6-15.9-21.4v-149.9C2.8-1065.9,9.9-1075.5,18.7-1075.5z"/>
	<path id="rect3757-26-33-5-9-0-0-7" d="M18.7-1064.8h63.4c4.4,0,7.9,4.8,7.9,10.7v149.9c0,5.9-3.5,10.7-7.9,10.7H18.7
		c-4.4,0-7.9-4.8-7.9-10.7v-149.9C10.8-1060,14.3-1064.8,18.7-1064.8z"/>
	<path id="path3773-0-4-8-4-60-3-86-5-7-5-4" class="st3" d="M74.2-1032.7c-35,0-63.4,38.3-63.4,85.6c0,11.8,7.1,21.4,15.9,21.4
		c35,0,63.4-38.3,63.4-85.6C90.1-1023.1,83-1032.7,74.2-1032.7z"/>
	<path id="path3773-0-4-8-8-7-9-0-9-1-07" class="st2" d="M15.4-979.2c-3,9.9-4.7,20.7-4.7,32.1c0,11.8,7.1,21.4,15.9,21.4
		l23.8-53.5H15.4z"/>
	<path id="path3773-0-4-8-8-5-6-5-0-08-2-6" class="st6" d="M50.4-979.2l-23.8,53.5c26.6,0,49.4-22.2,58.8-53.5H50.4z"/>
	<path id="path3773-0-4-8-8-1-4-3-1-0-0" class="st1" d="M74.2-1032.7c-26.6,0-49.4,22.2-58.8,53.5h35L74.2-1032.7z"/>
	<path id="path3773-0-4-8-8-5-8-3-9-4-9-1" class="st0" d="M74.2-1032.7l-23.8,53.5h35c3-9.9,4.7-20.7,4.7-32.1
		C90.1-1023.1,83-1032.7,74.2-1032.7z"/>
	<path id="path3773-0-4-8-8-7-9-5-7-0-8-29" class="st2" d="M15.9-1046.1c-0.7,2.5-1.2,5.2-1.2,8c0,3,1.8,5.4,4,5.4l5.9-13.4H15.9z"
		/>
	<path id="path3773-0-4-8-8-5-6-5-08-9-79-9-3" class="st6" d="M24.6-1046.1l-5.9,13.4c6.7,0,12.3-5.5,14.7-13.4H24.6z"/>
	<path id="path3773-0-4-8-8-1-4-39-9-5-1-85" class="st1" d="M30.6-1059.4c-6.7,0-12.3,5.5-14.7,13.4h8.7L30.6-1059.4z"/>
	<path id="path3773-0-4-8-8-5-8-3-3-7-38-7-1" class="st0" d="M30.6-1059.4l-5.9,13.4h8.7c0.7-2.5,1.2-5.2,1.2-8
		C34.6-1057,32.8-1059.4,30.6-1059.4z"/>
	<path id="path3773-0-4-8-8-7-9-5-3-2-3-5" class="st2" d="M67.4-912.3c-0.7,2.5-1.2,5.2-1.2,8c0,3,1.8,5.4,4,5.4l5.9-13.4H67.4z"/>
	<path id="path3773-0-4-8-8-5-6-5-08-5-3-3-66" class="st6" d="M76.2-912.3l-5.9,13.4c6.7,0,12.3-5.5,14.7-13.4H76.2z"/>
	<path id="path3773-0-4-8-8-1-4-39-7-2-0-8" class="st1" d="M82.1-925.6c-6.7,0-12.3,5.5-14.7,13.4h8.7L82.1-925.6z"/>
	<path id="path3773-0-4-8-8-5-8-3-3-6-1-7-8" class="st0" d="M82.1-925.6l-5.9,13.4h8.7c0.7-2.5,1.2-5.2,1.2-8
		C86.1-923.3,84.3-925.6,82.1-925.6z"/>
	<path id="path3773-0-4-8-8-7-9-0-03-8-0-6-9" class="st4" d="M74.2-1032.7c-26.6,0-49.4,22.2-58.8,53.5c-3,9.9-4.7,20.7-4.7,32.1
		c0,11.8,7.1,21.4,15.9,21.4c26.6,0,49.4-22.2,58.8-53.5c3-9.9,4.7-20.7,4.7-32.1C90.1-1023.1,83-1032.7,74.2-1032.7z"/>
	<path id="path3773-0-4-8-8-7-9-0-03-8-9-4-6-8" class="st4" d="M30.6-1059.4c-6.7,0-12.3,5.5-14.7,13.4c-0.7,2.5-1.2,5.2-1.2,8
		c0,3,1.8,5.4,4,5.4c6.7,0,12.3-5.5,14.7-13.4c0.7-2.5,1.2-5.2,1.2-8C34.6-1057,32.8-1059.4,30.6-1059.4z"/>
	<path id="path3773-0-4-8-8-7-9-0-03-8-9-5-07-0-7" class="st4" d="M82.1-925.6c-6.7,0-12.3,5.5-14.7,13.4c-0.7,2.5-1.2,5.2-1.2,8
		c0,3,1.8,5.4,4,5.4c6.7,0,12.3-5.5,14.7-13.4c0.7-2.5,1.2-5.2,1.2-8C86.1-923.3,84.3-925.6,82.1-925.6z"/>
</g>
</svg>
