<?xml version="1.0" encoding="utf-8"?>
<!-- Generator: Adobe Illustrator 16.0.0, SVG Export Plug-In . SVG Version: 6.00 Build 0)  -->
<!DOCTYPE svg PUBLIC "-//W3C//DTD SVG 1.1//EN" "http://www.w3.org/Graphics/SVG/1.1/DTD/svg11.dtd">
<svg version="1.1" id="Capa_1" xmlns="http://www.w3.org/2000/svg" xmlns:xlink="http://www.w3.org/1999/xlink" x="0px" y="0px"
	 width="100px" height="200px" viewBox="0 0 100 200" enable-background="new 0 0 100 200" xml:space="preserve">
<g id="carta" transform="matrix(4,0,0,4,-1260,-2077.0865)">
	<path id="rect2987-8-5-81-2-1" fill="#FFFFFF" stroke="#000000" stroke-width="0.2407" d="M319.2,519.3h16.7c2.3,0,4.2,2.5,4.2,5.6
		v38.9c0,3.1-1.9,5.6-4.2,5.6h-16.7c-2.3,0-4.2-2.5-4.2-5.6v-38.9C315,521.8,316.9,519.3,319.2,519.3z"/>
	<path id="color" d="M319.2,522.1h16.7c1.2,0,2.1,1.2,2.1,2.8v38.9c0,1.5-0.9,2.8-2.1,2.8h-16.7c-1.2,0-2.1-1.2-2.1-2.8v-38.9
		C317.1,523.3,318,522.1,319.2,522.1z"/>
	<path id="path3773-0-4-8-4-60-3-86-5-6" fill="#FFFFFF" d="M333.8,530.4c-9.2,0-16.7,10-16.7,22.2c0,3.1,1.9,5.6,4.2,5.6
		c9.2,0,16.7-10,16.7-22.2C337.9,532.9,336.1,530.4,333.8,530.4z"/>
	<path id="rect3980-7-6-2-9-5-60-5-3-1-5" fill="#FFFFFF" d="M323.3,523.4l-2,5.6v1.4h2.5v1.4h1v-1.4h0.6V529h-0.6v-2.8h-1v2.8h-1.4
		l2-5.6H323.3z"/>
	<path id="rect5649-4" fill="#FFFFFF" d="M318.5,526.2v1.4h-1v1.4h1v1.4h1V529h1v-1.4h-1v-1.4L318.5,526.2L318.5,526.2z"/>
	<path id="rect3980-7-6-2-9-5-60-5-3-1-8-9" fill="#FFFFFF" d="M331.7,565.2l2-5.6v-1.4h-2.5v-1.4h-1v1.4h-0.6v1.4h0.6v2.8h1v-2.8
		h1.4l-2,5.6H331.7z"/>
	<path id="rect5649-1-1" fill="#FFFFFF" d="M336.5,562.4V561h1v-1.4h-1v-1.4h-1v1.4h-1v1.4h1v1.4H336.5z"/>
</g>
<g id="rojo_1_" transform="translate(119.99999,429.99998)">
	<path id="rect6095-2-9" fill="#FFFFFF" stroke="#000000" stroke-width="0.2455" d="M-85.6-357.887h16.8c2.399,0,3.6,2.4,3.2,5.2
		l-8.4,40c-0.4,2.8-2.8,5.2-5.2,5.2H-96c-2.4,0-3.6-2.4-3.2-5.2l8.4-40C-90-355.486-87.6-357.887-85.6-357.887z"/>
	<path id="rojo" fill="#FF5555" d="M-82.4-352.287h8.4c2.4,0,3.6,2.4,3.2,5.2l-6,28.799c-0.4,2.801-2.8,5.201-5.2,5.201h-8.4
		c-2.4,0-3.6-2.4-3.2-5.201l6-28.799C-87.2-349.887-84.8-352.287-82.4-352.287z"/>
</g>
<g id="azul_1_" transform="translate(129.99998,422.49998)">
	<path id="rect6095-14-0-3" fill="#FFFFFF" stroke="#000000" stroke-width="0.2455" d="M-78.8-366.787H-62c2.4,0,3.6,2.4,3.2,5.2
		l-8.4,40c-0.399,2.799-2.8,5.199-5.2,5.199h-16.8c-2.4,0-3.6-2.4-3.2-5.199l8.4-40C-83.6-364.787-81.2-366.787-78.8-366.787z"/>
	<path id="azul" fill="#5555FF" d="M-76-361.186h8.4c2.399,0,3.6,2.4,3.199,5.2l-6,28.8c-0.399,2.8-2.8,5.2-5.199,5.2H-84
		c-2.4,0-3.6-2.4-3.2-5.2l6-28.8C-80.4-359.186-78-361.186-76-361.186z"/>
</g>
<g id="amarillo_1_" transform="translate(127.49999,437.49998)">
	<path id="rect6095-0-3" fill="#FFFFFF" stroke="#000000" stroke-width="0.2455" d="M-80.3-348.586h16.8c2.4,0,3.6,2.4,3.2,5.2
		l-8.4,40c-0.399,2.801-2.8,5.2-5.2,5.2h-16.8c-2.4,0-3.6-2.399-3.2-5.2l8.4-40C-85.1-346.186-82.7-348.586-80.3-348.586z"/>
	<path id="amarillo" fill="#FFAA00" d="M-77.5-342.986h8.4c2.399,0,3.6,2.4,3.199,5.2l-6,28.8c-0.399,2.8-2.8,5.199-5.2,5.199h-8.4
		c-2.4,0-3.6-2.399-3.2-5.199l6-28.8C-82.3-340.586-79.9-342.986-77.5-342.986z"/>
</g>
<g id="verde_1_" transform="translate(137.49998,429.99999)">
	<path id="rect6095-14-8-2" fill="#FFFFFF" stroke="#000000" stroke-width="0.2455" d="M-73.9-357.886H-57.1
		c2.399,0,3.6,2.4,3.199,5.2l-8.4,40c-0.399,2.8-2.799,5.2-5.199,5.2h-16.801c-2.399,0-3.599-2.4-3.199-5.2l8.4-40
		C-78.3-355.486-76.3-357.886-73.9-357.886z"/>
	<path id="verde" fill="#55AA55" d="M-70.7-352.287h8.4c2.399,0,3.6,2.4,3.2,5.2l-6,28.799c-0.4,2.801-2.801,5.201-5.2,5.201h-8.4
		c-2.399,0-3.6-2.4-3.2-5.201l6-28.799C-75.5-349.886-73.1-352.287-70.7-352.287z"/>
</g>
</svg>
