<?xml version="1.0" encoding="utf-8"?>
<!-- Generator: Adobe Illustrator 16.0.0, SVG Export Plug-In . SVG Version: 6.00 Build 0)  -->
<!DOCTYPE svg PUBLIC "-//W3C//DTD SVG 1.1//EN" "http://www.w3.org/Graphics/SVG/1.1/DTD/svg11.dtd">
<svg version="1.1" id="Capa_1" xmlns="http://www.w3.org/2000/svg" xmlns:xlink="http://www.w3.org/1999/xlink" x="0px" y="0px"
	 width="200px" height="100px" viewBox="0 0 200 100" enable-background="new 0 0 200 100" xml:space="preserve">
<path id="rect2987-8-5-81-2-4-9-82" fill="#FFFFFF" stroke="#000000" stroke-width="1.8877" d="M199.661,18.496l0.019,64.983
	c0,9.02-9.833,16.3-21.915,16.3L24.255,99.8C12.173,99.803,2.341,92.525,2.337,83.506L2.321,18.521
	C2.32,9.501,12.152,2.222,24.234,2.221l153.508-0.02C189.825,2.199,199.656,9.475,199.661,18.496z"/>
<path id="rect3757-26-33-5-9-0-0-7" d="M188.703,18.498l0.016,64.985c0,4.508-4.915,8.099-10.958,8.099L24.255,91.598
	c-6.042,0-10.958-3.583-10.96-8.095L13.283,18.52c-0.002-4.51,4.912-8.1,10.956-8.1l153.504-0.02
	C183.785,10.399,188.703,13.988,188.703,18.498z"/>
<path id="path3773-0-4-8-4-60-3-86-5-7-5-4" fill="#FFFFFF" d="M155.843,75.389c-0.008-35.875-39.237-64.979-87.676-64.974
	c-12.085,0.001-21.913,7.282-21.913,16.301c0.009,35.873,39.237,64.976,87.674,64.97C146.015,91.686,155.843,84.407,155.843,75.389z
	"/>
<text transform="matrix(0.8476 0.53 -0.5294 0.8484 77.4609 44.2764)" font-family="'Rockwell'" font-size="24.5912">DOS</text>
</svg>
