<?xml version="1.0" encoding="utf-8"?>
<!-- Generator: Adobe Illustrator 16.0.0, SVG Export Plug-In . SVG Version: 6.00 Build 0)  -->
<!DOCTYPE svg PUBLIC "-//W3C//DTD SVG 1.1//EN" "http://www.w3.org/Graphics/SVG/1.1/DTD/svg11.dtd">
<svg version="1.1" id="Capa_1" xmlns="http://www.w3.org/2000/svg" xmlns:xlink="http://www.w3.org/1999/xlink" x="0px" y="0px"
	 width="100px" height="200px" viewBox="0 0 100 200" style="enable-background:new 0 0 100 200;" xml:space="preserve">
<style type="text/css">
<![CDATA[
	.st0{enable-background:new    ;}
	.st1{fill:#FFFFFF;stroke:#000000;stroke-width:3.7859;}
	.st2{fill:#FFFFFF;}
]]>
</style>
<g>
	<path id="rect2987-8-5-81-2-4-9-82" class="st1" d="M18.8,0.6l65,0.2c9,0,16.3,10,16.2,22.1l-0.5,154.4c0,12.2-7.3,22-16.4,22
		l-65-0.2c-9,0-16.3-10-16.2-22.1L2.4,22.6C2.5,10.5,9.8,0.6,18.8,0.6z"/>
	<path id="rect3757-26-33-5-9-0-0-7" d="M18.8,11.7l65,0.2c4.5,0,8.1,4.9,8.1,11.1l-0.5,154.4c0,6-3.6,11-8.1,11l-65-0.2
		c-4.5,0-8.1-4.9-8.1-11.1l0.5-154.4C10.7,16.6,14.3,11.7,18.8,11.7z"/>
	<path id="path3773-0-4-8-4-60-3-86-5-7-5-4" class="st2" d="M75.6,44.9c-35.9-0.1-65.1,39.2-65.3,88c0,12.2,7.2,22,16.2,22.1
		c35.9,0.1,65.1-39.2,65.3-88C91.8,54.8,84.6,45,75.6,44.9z"/>
	<g class="st0">
		<path d="M41.8,124.1L28.2,117l-1.6,2.1l-2.3-1.2l4.4-5.9c1.2-1.6,2.3-2.8,3.1-3.6c0.9-0.8,1.9-1.4,3.3-1.8
			c1.3-0.5,2.8-0.6,4.4-0.4c1.6,0.2,3.2,0.6,4.8,1.5c1.8,0.9,3.2,2,4.1,3.2c1,1.2,1.5,2.3,1.6,3.4c0.1,1.1-0.2,2.3-0.7,3.5
			c-0.5,1.2-1.4,2.6-2.7,4.2l-4.2,5.5l-2.3-1.2L41.8,124.1z M43.6,121.8l0.9-1.2c1-1.3,1.7-2.4,2.1-3.3c0.4-0.9,0.5-1.7,0.5-2.5
			c-0.1-0.8-0.5-1.6-1.2-2.5c-0.7-0.8-1.7-1.6-3.1-2.3c-1.6-0.8-3.1-1.3-4.6-1.3c-1.5,0-2.8,0.3-3.7,1c-1,0.7-2.1,1.9-3.5,3.7
			l-1,1.3L43.6,121.8z"/>
		<path d="M46.3,105.5c-2.6-1.4-4.3-3.3-5-5.6c-0.7-2.4-0.2-4.7,1.6-7c1.8-2.3,4.1-3.8,6.9-4.3c2.9-0.5,5.7-0.1,8.3,1.3
			c2.7,1.4,4.4,3.4,5,5.8c0.6,2.4,0.1,4.8-1.6,7.1c-1.1,1.5-2.5,2.6-4.3,3.4c-1.8,0.8-3.6,1.1-5.6,0.9S47.9,106.3,46.3,105.5z
			 M48.2,103c2,1,4,1.4,6.1,1.2c2.1-0.3,3.7-1.2,4.9-2.8c1.2-1.6,1.5-3.2,0.8-5s-1.9-3.1-3.8-4.1c-1.9-1-3.9-1.4-6.1-1
			c-2.1,0.3-3.7,1.3-4.9,2.8c-1.2,1.5-1.5,3.2-0.9,4.8C45,100.6,46.2,101.9,48.2,103z"/>
		<path d="M68.7,92.7l-6.6-3.5l1.4-1.9l1.6,0.8c2.7,0.1,4.5-0.5,5.6-2c0.6-0.7,0.8-1.5,0.6-2.3c-0.2-0.8-0.7-1.4-1.6-1.9
			c-0.9-0.5-1.6-0.6-2.3-0.3s-1.7,0.8-2.9,1.8c-1.5,1.1-2.6,1.9-3.5,2.4c-0.9,0.5-1.8,0.7-2.8,0.7c-1,0-2-0.2-3-0.8
			c-1.5-0.8-2.4-1.9-2.7-3.2c-0.3-1.3,0.1-2.6,1-3.9c0.9-1.2,2.2-2.1,4-2.6l-1.2-0.6l1.4-1.9l5.5,2.9l-1.4,1.9l-1.3-0.7
			c-2,0-3.5,0.7-4.5,2.1c-0.6,0.8-0.9,1.6-0.8,2.3c0.1,0.7,0.5,1.2,1.1,1.5c0.5,0.3,1,0.4,1.5,0.3c0.5,0,1-0.2,1.5-0.4
			s1.2-0.8,2.3-1.7c1.4-1.1,2.5-1.9,3.4-2.3c0.8-0.4,1.8-0.6,3-0.6c1.2,0,2.3,0.3,3.4,0.9c1.5,0.8,2.5,1.9,2.8,3.4
			c0.3,1.4,0,2.8-1,4.2c-1,1.4-2.6,2.3-4.6,2.8l1.5,0.8L68.7,92.7z"/>
	</g>
</g>
</svg>
