<?xml version="1.0" encoding="utf-8"?>
<!-- Generator: Adobe Illustrator 16.0.0, SVG Export Plug-In . SVG Version: 6.00 Build 0)  -->
<!DOCTYPE svg PUBLIC "-//W3C//DTD SVG 1.1//EN" "http://www.w3.org/Graphics/SVG/1.1/DTD/svg11.dtd">
<svg version="1.1" id="Capa_1" xmlns="http://www.w3.org/2000/svg" xmlns:xlink="http://www.w3.org/1999/xlink" x="0px" y="0px"
	 width="100px" height="200px" viewBox="0 0 100 200" style="enable-background:new 0 0 100 200;" xml:space="preserve">
<style type="text/css">
<![CDATA[
	.st0{fill:#FF5555;}
	.st1{fill:#FFFFFF;}
	.st2{fill:#FFFFFF;stroke:#000000;stroke-width:0.2406;}
]]>
</style>
<g id="g6579" transform="matrix(4,0,0,4,-1260,-2077.0865)">
	<path id="rect2987-8-5" class="st2" d="M319.2,519.3h16.7c2.3,0,4.2,2.5,4.2,5.6v38.9c0,3.1-1.9,5.6-4.2,5.6h-16.7
		c-2.3,0-4.2-2.5-4.2-5.6v-38.9C315,521.8,316.9,519.3,319.2,519.3z"/>
	<path id="rect3757-26-33" class="st0" d="M319.2,522h16.7c1.2,0,2.1,1.2,2.1,2.8v38.9c0,1.5-0.9,2.8-2.1,2.8h-16.7
		c-1.2,0-2.1-1.2-2.1-2.8v-38.9C317.1,523.3,318,522,319.2,522z"/>
	<path id="path3773-0-4-8-4-60-3" class="st1" d="M333.8,530.4c-9.2,0-16.7,9.9-16.7,22.2c0,3.1,1.9,5.6,4.2,5.6
		c9.2,0,16.7-9.9,16.7-22.2C337.9,532.9,336.1,530.4,333.8,530.4z"/>
	<path id="rect3163-52-9-8-1-1-2-7-3-6-4-6-1-8-7-0-1" class="st0" d="M327.5,535.9c-1.7,0-3.1,1.9-3.1,4.2h2.1c0-0.8,0.5-1.4,1-1.4
		c0.6,0,1,0.6,1,1.4c0,0.8-0.5,1.4-1,1.4h-1.2v2.8h1.2c1.2,0,2.1,1.2,2.1,2.8c0,1.5-0.9,2.8-2.1,2.8c-1.2,0-2.1-1.2-2.1-2.8h-2.1
		c0,3.1,1.9,5.6,4.2,5.6c2.3,0,4.2-2.5,4.2-5.6c0-1.8-0.7-3.4-1.7-4.4c0.4-0.7,0.6-1.6,0.6-2.5C330.6,537.8,329.2,535.9,327.5,535.9
		z"/>
	<path id="rect3163-52-9-8-1-1-2-7-3-6-4-6-1-8-7-0-6-2" class="st1" d="M320.2,523.4c-0.9,0-1.6,0.9-1.6,2.1h1
		c0-0.4,0.2-0.7,0.5-0.7s0.5,0.3,0.5,0.7s-0.2,0.7-0.5,0.7h-0.6v1.4h0.6c0.6,0,1,0.6,1,1.4c0,0.8-0.5,1.4-1,1.4s-1-0.6-1-1.4h-1
		c0,1.5,0.9,2.8,2.1,2.8s2.1-1.2,2.1-2.8c0-0.9-0.3-1.7-0.8-2.2c0.2-0.3,0.3-0.8,0.3-1.3C321.8,524.4,321.1,523.4,320.2,523.4z"/>
	<path id="rect3163-52-9-8-1-1-2-7-3-6-4-6-1-8-7-0-6-2-6" class="st1" d="M334.8,565.1c0.9,0,1.6-0.9,1.6-2.1h-1
		c0,0.4-0.2,0.7-0.5,0.7c-0.3,0-0.5-0.3-0.5-0.7c0-0.4,0.2-0.7,0.5-0.7h0.6v-1.4h-0.6c-0.6,0-1-0.6-1-1.4c0-0.8,0.5-1.4,1-1.4
		c0.6,0,1,0.6,1,1.4h1c0-1.5-0.9-2.8-2.1-2.8c-1.2,0-2.1,1.2-2.1,2.8c0,0.9,0.3,1.7,0.8,2.2c-0.2,0.3-0.3,0.8-0.3,1.3
		C333.2,564.2,333.9,565.1,334.8,565.1z"/>
</g>
</svg>
