<?xml version="1.0" encoding="utf-8"?>
<!-- Generator: Adobe Illustrator 16.0.0, SVG Export Plug-In . SVG Version: 6.00 Build 0)  -->
<!DOCTYPE svg PUBLIC "-//W3C//DTD SVG 1.1//EN" "http://www.w3.org/Graphics/SVG/1.1/DTD/svg11.dtd">
<svg version="1.1" id="Capa_1" xmlns="http://www.w3.org/2000/svg" xmlns:xlink="http://www.w3.org/1999/xlink" x="0px" y="0px"
	 width="100px" height="200px" viewBox="0 0 100 200" style="enable-background:new 0 0 100 200;" xml:space="preserve">
<style type="text/css">
<![CDATA[
	.st0{fill:#FF5555;}
	.st1{fill:#FFFFFF;}
	.st2{fill:#FFFFFF;stroke:#000000;stroke-width:0.2405;}
]]>
</style>
<g id="g6611" transform="matrix(4,0,0,4,-1260,-2077.0865)">
	<path id="rect2987-4" class="st2" d="M319.2,519.2h16.6c2.3,0,4.2,2.5,4.2,5.6v38.9c0,3.1-1.9,5.6-4.2,5.6h-16.6
		c-2.3,0-4.2-2.5-4.2-5.6v-38.9C315,521.7,316.9,519.2,319.2,519.2z"/>
	<path id="rect3757-2" class="st0" d="M319.2,522h16.6c1.1,0,2.1,1.2,2.1,2.8v38.9c0,1.5-0.9,2.8-2.1,2.8h-16.6
		c-1.1,0-2.1-1.2-2.1-2.8v-38.9C317.1,523.3,318,522,319.2,522z"/>
	<path id="path3773-0-4-8-4-3" class="st1" d="M333.7,530.4c-9.2,0-16.6,10-16.6,22.2c0,3.1,1.9,5.6,4.2,5.6
		c9.2,0,16.6-10,16.6-22.2C337.9,532.8,336,530.4,333.7,530.4z"/>
	<path id="rect4014" class="st0" d="M323.9,535.9v5.6h2.1v-2.8h4.2l-4.2,13.9h2.1l4.2-13.9v-2.8H326H323.9z"/>
	<path id="rect4014-3" class="st1" d="M318.1,523.4v2.8h1v-1.4h2.1l-2.1,7h1l2.1-7v-1.4h-3.1H318.1z"/>
	<path id="rect4014-3-3" class="st1" d="M336.8,565.1v-2.8h-1v1.4h-2.1l2.1-7h-1l-2.1,7v1.4h3.1H336.8z"/>
</g>
</svg>
