<?xml version="1.0" encoding="utf-8"?>
<!-- Generator: Adobe Illustrator 16.0.0, SVG Export Plug-In . SVG Version: 6.00 Build 0)  -->
<!DOCTYPE svg PUBLIC "-//W3C//DTD SVG 1.1//EN" "http://www.w3.org/Graphics/SVG/1.1/DTD/svg11.dtd">
<svg version="1.1" id="Capa_1" xmlns="http://www.w3.org/2000/svg" xmlns:xlink="http://www.w3.org/1999/xlink" x="0px" y="0px"
	 width="100px" height="200px" viewBox="0 0 100 200" style="enable-background:new 0 0 100 200;" xml:space="preserve">
<style type="text/css">
<![CDATA[
	.st0{fill:#FF5555;}
	.st1{fill:#FFFFFF;}
	.st2{fill:#FFFFFF;stroke:#000000;stroke-width:0.2402;}
]]>
</style>
<g id="g6603" transform="matrix(4,0,0,4,-1260,-2077.0865)">
	<path id="rect2987-8-5-7" class="st2" d="M319.4,519.3H336c2.3,0,4.2,2.5,4.2,5.6v38.9c0,3.1-1.9,5.6-4.2,5.6h-16.6
		c-2.3,0-4.2-2.5-4.2-5.6v-38.9C315.2,521.8,317.1,519.3,319.4,519.3z"/>
	<path id="rect3757-26-33-2" class="st0" d="M319.4,522H336c1.1,0,2.1,1.2,2.1,2.8v38.9c0,1.5-0.9,2.8-2.1,2.8h-16.6
		c-1.1,0-2.1-1.2-2.1-2.8v-38.9C317.3,523.3,318.2,522,319.4,522z"/>
	<path id="path3773-0-4-8-4-60-3-2" class="st1" d="M333.9,530.4c-9.2,0-16.6,9.9-16.6,22.2c0,3.1,1.9,5.6,4.2,5.6
		c9.2,0,16.6-9.9,16.6-22.2C338,532.9,336.2,530.4,333.9,530.4z"/>
	<path id="path3962-5-6-2" class="st0" d="M327.7,535.9c-2.3,0-4.2,2.5-4.2,5.6v5.6c0,3.1,1.9,5.6,4.2,5.6c2.3,0,4.2-2.5,4.2-5.6
		c0-3.1-1.9-5.6-4.2-5.6c-0.8,0-1.5,0.3-2.1,0.7v-0.7c0-1.5,0.9-2.8,2.1-2.8c0.8,0,1.5,0.6,1.8,1.5l1.9-1.3
		C330.7,537.2,329.3,535.9,327.7,535.9z M327.7,544.3c1.1,0,2.1,1.2,2.1,2.8s-0.9,2.8-2.1,2.8c-1.1,0-2.1-1.2-2.1-2.8
		S326.5,544.3,327.7,544.3z M325.6,553.2v1.1h4.2v-1.1H325.6z"/>
	<path id="path3962-5-6-2-1" class="st1" d="M320.4,523.4c-1.1,0-2.1,1.2-2.1,2.8v2.8c0,1.5,0.9,2.8,2.1,2.8c1.1,0,2.1-1.2,2.1-2.8
		c0-1.5-0.9-2.8-2.1-2.8c-0.4,0-0.7,0.1-1,0.4v-0.4c0-0.8,0.5-1.4,1-1.4c0.4,0,0.8,0.3,0.9,0.8l0.9-0.6
		C321.9,524.1,321.2,523.4,320.4,523.4z M320.4,527.6c0.6,0,1,0.6,1,1.4c0,0.8-0.5,1.4-1,1.4s-1-0.6-1-1.4
		C319.4,528.2,319.8,527.6,320.4,527.6z"/>
	<path id="path3962-5-6-2-1-8" class="st1" d="M334.9,565.1c1.1,0,2.1-1.2,2.1-2.8v-2.8c0-1.5-0.9-2.8-2.1-2.8s-2.1,1.2-2.1,2.8
		s0.9,2.8,2.1,2.8c0.4,0,0.7-0.1,1-0.4v0.4c0,0.8-0.5,1.4-1,1.4c-0.4,0-0.8-0.3-0.9-0.8l-0.9,0.6
		C333.4,564.5,334.1,565.1,334.9,565.1z M334.9,560.9c-0.6,0-1-0.6-1-1.4s0.5-1.4,1-1.4c0.6,0,1,0.6,1,1.4S335.5,560.9,334.9,560.9z
		"/>
</g>
</svg>
