<?xml version="1.0" encoding="utf-8"?>
<!-- Generator: Adobe Illustrator 16.0.0, SVG Export Plug-In . SVG Version: 6.00 Build 0)  -->
<!DOCTYPE svg PUBLIC "-//W3C//DTD SVG 1.1//EN" "http://www.w3.org/Graphics/SVG/1.1/DTD/svg11.dtd">
<svg version="1.1" id="Capa_1" xmlns="http://www.w3.org/2000/svg" xmlns:xlink="http://www.w3.org/1999/xlink" x="0px" y="0px"
	 width="100px" height="200px" viewBox="0 0 100 200" style="enable-background:new 0 0 100 200;" xml:space="preserve">
<style type="text/css">
<![CDATA[
	.st0{fill:#FF5555;}
	.st1{fill:#FFFFFF;}
	.st2{fill:#FFFFFF;stroke:#000000;stroke-width:0.2399;}
]]>
</style>
<g id="g6571" transform="matrix(4,0,0,4,-1260,-2077.0865)">
	<path id="rect2987-8" class="st2" d="M319.2,519.4h16.6c2.3,0,4.2,2.5,4.2,5.5v38.8c0,3.1-1.9,5.5-4.2,5.5h-16.6
		c-2.3,0-4.2-2.5-4.2-5.5V525C315,521.9,316.9,519.4,319.2,519.4z"/>
	<path id="rect3757-26" class="st0" d="M319.2,522.2h16.6c1.1,0,2.1,1.2,2.1,2.8v38.8c0,1.5-0.9,2.8-2.1,2.8h-16.6
		c-1.1,0-2.1-1.2-2.1-2.8V525C317.1,523.4,318.1,522.2,319.2,522.2z"/>
	<path id="path3773-0-4-8-4-60" class="st1" d="M333.8,530.5c-9.2,0-16.6,9.9-16.6,22.1c0,3.1,1.9,5.5,4.2,5.5
		c9.2,0,16.6-9.9,16.6-22.1C337.9,533,336.1,530.5,333.8,530.5z"/>
	<path id="rect3163-52-9-8-1-1-2-7-3-6-5" class="st0" d="M327.1,536c-2.3,0-4.2,2.5-4.2,5.5v0.6h2.1v-0.6c0-1.5,0.9-2.8,2.1-2.8
		c1.2,0,2.1,1.2,2.1,2.8c0,0.6-0.4,1.8-0.8,2.3c-2.2,2.3-2.2,1.9-5.4,4.9v3.9h4.2h4.2v-2.8v-1.1h-2.1v1.1h-2.1h-1.7
		c2.6-2.4,2.8-2.4,4.8-4.8c0.6-0.8,1-2.3,1-3.5C331.3,538.5,329.4,536,327.1,536z"/>
	<path id="rect3163-52-9-8-1-1-2-7-3-6-0-9" class="st1" d="M320.2,523.6c-1.2,0-2.1,1.2-2.1,2.8v0.3h1v-0.3c0-0.8,0.5-1.4,1-1.4
		c0.6,0,1,0.6,1,1.4c0,0.3-0.2,0.9-0.4,1.1c-1.1,1.2-1.1,1-2.7,2.5v1.9h2.1h2.1v-1.4V530h-1v0.6h-1h-0.8c1.3-1.2,1.4-1.2,2.4-2.4
		c0.3-0.4,0.5-1.1,0.5-1.8C322.3,524.8,321.4,523.6,320.2,523.6z"/>
	<path id="rect3163-52-9-8-1-1-2-7-3-6-0-4" class="st1" d="M334.8,565.1c1.2,0,2.1-1.2,2.1-2.8v-0.3h-1v0.3c0,0.8-0.5,1.4-1,1.4
		c-0.6,0-1-0.6-1-1.4c0-0.3,0.2-0.9,0.4-1.1c1.1-1.2,1.1-1,2.7-2.5v-1.9h-2.1h-2.1v1.4v0.6h1v-0.6h1h0.8c-1.3,1.2-1.4,1.2-2.4,2.4
		c-0.3,0.4-0.5,1.1-0.5,1.8C332.7,563.9,333.6,565.1,334.8,565.1z"/>
</g>
</svg>
