<?xml version="1.0" encoding="utf-8"?>
<!-- Generator: Adobe Illustrator 16.0.0, SVG Export Plug-In . SVG Version: 6.00 Build 0)  -->
<!DOCTYPE svg PUBLIC "-//W3C//DTD SVG 1.1//EN" "http://www.w3.org/Graphics/SVG/1.1/DTD/svg11.dtd">
<svg version="1.1" id="Capa_1" xmlns="http://www.w3.org/2000/svg" xmlns:xlink="http://www.w3.org/1999/xlink" x="0px" y="0px"
	 width="100px" height="200px" viewBox="0 0 100 200" style="enable-background:new 0 0 100 200;" xml:space="preserve">
<style type="text/css">
<![CDATA[
	.st0{fill:#FF5555;}
	.st1{fill:#FFFFFF;}
	.st2{fill:#FFFFFF;stroke:#000000;stroke-width:0.2412;}
]]>
</style>
<g id="g6627" transform="matrix(4,0,0,4,-1260,-2077.0865)">
	<path id="rect2987-8-5-81" class="st2" d="M319.1,519.3h16.8c2.3,0,4.2,2.5,4.2,5.6v38.9c0,3.1-1.9,5.6-4.2,5.6h-16.8
		c-2.3,0-4.2-2.5-4.2-5.6v-38.9C314.9,521.8,316.7,519.3,319.1,519.3z"/>
	<path id="rect3757-26-33-5" class="st0" d="M319.1,522h16.8c1.2,0,2.1,1.2,2.1,2.8v38.9c0,1.5-0.9,2.8-2.1,2.8h-16.8
		c-1.2,0-2.1-1.2-2.1-2.8v-38.9C317,523.3,317.9,522,319.1,522z"/>
	<path id="path3773-0-4-8-4-60-3-86" class="st1" d="M333.7,530.4c-9.3,0-16.8,9.9-16.8,22.2c0,3.1,1.9,5.6,4.2,5.6
		c9.3,0,16.8-9.9,16.8-22.2C337.9,532.9,336,530.4,333.7,530.4z"/>
	<path id="path3962-5-8" class="st0" d="M327.4,535.9c-2.3,0-4.2,2.5-4.2,5.6c0,3.1,1.9,5.6,4.2,5.6c0.8,0,1.5-0.3,2.1-0.7v0.7
		c0,1.5-0.9,2.8-2.1,2.8c-0.8,0-1.5-0.6-1.9-1.5l-1.9,1.2c0.7,1.8,2.1,3.1,3.7,3.1c2.3,0,4.2-2.5,4.2-5.6v-5.6
		C331.6,538.4,329.8,535.9,327.4,535.9z M327.4,538.7c1.2,0,2.1,1.2,2.1,2.8c0,1.5-0.9,2.8-2.1,2.8c-1.2,0-2.1-1.2-2.1-2.8
		C325.3,540,326.3,538.7,327.4,538.7z M325.3,553.2v1.1h4.2v-1.1H325.3z"/>
	<path id="path3962-5-6-2-1-9" class="st1" d="M320.1,531.8c1.2,0,2.1-1.2,2.1-2.8v-2.8c0-1.5-0.9-2.8-2.1-2.8s-2.1,1.2-2.1,2.8
		c0,1.5,0.9,2.8,2.1,2.8c0.4,0,0.7-0.1,1-0.4v0.4c0,0.8-0.5,1.4-1,1.4c-0.4,0-0.8-0.3-0.9-0.8l-0.9,0.6
		C318.6,531.1,319.3,531.8,320.1,531.8z M320.1,527.6c-0.6,0-1-0.6-1-1.4s0.5-1.4,1-1.4s1,0.6,1,1.4S320.7,527.6,320.1,527.6z"/>
	<path id="path3962-5-6-2-1-8-7" class="st1" d="M334.8,556.8c-1.2,0-2.1,1.2-2.1,2.8v2.8c0,1.5,0.9,2.8,2.1,2.8s2.1-1.2,2.1-2.8
		c0-1.5-0.9-2.8-2.1-2.8c-0.4,0-0.7,0.1-1,0.4v-0.4c0-0.8,0.5-1.4,1-1.4c0.4,0,0.8,0.3,0.9,0.8l0.9-0.6
		C336.3,557.4,335.6,556.8,334.8,556.8z M334.8,560.9c0.6,0,1,0.6,1,1.4s-0.5,1.4-1,1.4s-1-0.6-1-1.4S334.2,560.9,334.8,560.9z"/>
</g>
</svg>
