<?xml version="1.0" encoding="utf-8"?>
<!-- Generator: Adobe Illustrator 16.0.0, SVG Export Plug-In . SVG Version: 6.00 Build 0)  -->
<!DOCTYPE svg PUBLIC "-//W3C//DTD SVG 1.1//EN" "http://www.w3.org/Graphics/SVG/1.1/DTD/svg11.dtd">
<svg version="1.1" id="Capa_1" xmlns="http://www.w3.org/2000/svg" xmlns:xlink="http://www.w3.org/1999/xlink" x="0px" y="0px"
	 width="100px" height="200px" viewBox="0 0 100 200" style="enable-background:new 0 0 100 200;" xml:space="preserve">
<style type="text/css">
<![CDATA[
	.st0{fill:#FF5555;}
	.st1{fill:#FFFFFF;}
	.st2{fill:#FFFFFF;stroke:#000000;stroke-width:0.2385;}
]]>
</style>
<g id="g6595" transform="matrix(4,0,0,4,-1260,-2077.0865)">
	<path id="rect2987-8-5-6" class="st2" d="M319.4,519.6h16.5c2.3,0,4.1,2.5,4.1,5.5v38.7c0,3.1-1.8,5.5-4.1,5.5h-16.5
		c-2.3,0-4.1-2.5-4.1-5.5v-38.7C315.3,522,317.1,519.6,319.4,519.6z"/>
	<path id="rect3757-26-33-81" class="st0" d="M319.4,522.3h16.5c1.1,0,2.1,1.2,2.1,2.8v38.7c0,1.5-0.9,2.8-2.1,2.8h-16.5
		c-1.1,0-2.1-1.2-2.1-2.8v-38.7C317.4,523.6,318.3,522.3,319.4,522.3z"/>
	<path id="path3773-0-4-8-4-60-3-9" class="st1" d="M333.8,530.6c-9.1,0-16.5,9.9-16.5,22.1c0,3.1,1.8,5.5,4.1,5.5
		c9.1,0,16.5-9.9,16.5-22.1C337.9,533.1,336.1,530.6,333.8,530.6z"/>
	<path id="rect3163-6-0-0-2-7-1-2-19-4" class="st0" d="M323.9,536.1v5.5v2.8h4.1c1.1,0,2.1,1.2,2.1,2.8c0,1.5-0.9,2.8-2.1,2.8
		c-1.1,0-2.1-1.2-2.1-2.8h-2.1c0,3.1,1.8,5.5,4.1,5.5c2.3,0,4.1-2.5,4.1-5.5c0-3.1-1.8-5.5-4.1-5.5H326v-2.8h2.1h3.7v-2.8h-3.7H326
		H323.9z"/>
	<path id="rect3163-6-0-0-2-7-1-2-19-2-4" class="st1" d="M318.4,523.7v2.8v1.4h2.1c0.6,0,1,0.6,1,1.4s-0.5,1.4-1,1.4
		c-0.6,0-1-0.6-1-1.4h-1c0,1.5,0.9,2.8,2.1,2.8c1.1,0,2.1-1.2,2.1-2.8c0-1.5-0.9-2.8-2.1-2.8h-1v-1.4h1h1.9v-1.4h-1.9h-1H318.4z"/>
	<path id="rect3163-6-0-0-2-7-1-2-19-2-4-6" class="st1" d="M336.9,565.1v-2.8V561h-2.1c-0.6,0-1-0.6-1-1.4s0.5-1.4,1-1.4
		c0.6,0,1,0.6,1,1.4h1c0-1.5-0.9-2.8-2.1-2.8c-1.1,0-2.1,1.2-2.1,2.8s0.9,2.8,2.1,2.8h1v1.4h-1H333v1.4h1.9h1H336.9z"/>
</g>
</svg>
