<?xml version="1.0" encoding="utf-8"?>
<!-- Generator: Adobe Illustrator 16.0.0, SVG Export Plug-In . SVG Version: 6.00 Build 0)  -->
<!DOCTYPE svg PUBLIC "-//W3C//DTD SVG 1.1//EN" "http://www.w3.org/Graphics/SVG/1.1/DTD/svg11.dtd">
<svg version="1.1" id="Capa_1" xmlns="http://www.w3.org/2000/svg" xmlns:xlink="http://www.w3.org/1999/xlink" x="0px" y="0px"
	 width="100px" height="200px" viewBox="0 0 100 200" style="enable-background:new 0 0 100 200;" xml:space="preserve">
<style type="text/css">
<![CDATA[
	.st0{fill:#FF5555;}
	.st1{fill:#FFFFFF;}
	.st2{fill:#FFFFFF;stroke:#000000;stroke-width:0.2401;}
]]>
</style>
<g id="g6619" transform="matrix(4,0,0,4,-1260,-2077.0865)">
	<path id="rect2987-8-5-8" class="st2" d="M319.2,519.3h16.7c2.3,0,4.2,2.5,4.2,5.5v38.7c0,3.1-1.9,5.5-4.2,5.5h-16.7
		c-2.3,0-4.2-2.5-4.2-5.5v-38.7C315,521.7,316.9,519.3,319.2,519.3z"/>
	<path id="rect3757-26-33-9" class="st0" d="M319.2,522h16.7c1.2,0,2.1,1.2,2.1,2.8v38.7c0,1.5-0.9,2.8-2.1,2.8h-16.7
		c-1.2,0-2.1-1.2-2.1-2.8v-38.7C317.1,523.3,318,522,319.2,522z"/>
	<path id="path3773-0-4-8-4-60-3-0" class="st1" d="M333.8,530.3c-9.2,0-16.7,9.9-16.7,22.1c0,3.1,1.9,5.5,4.2,5.5
		c9.2,0,16.7-9.9,16.7-22.1C337.9,532.8,336.1,530.3,333.8,530.3z"/>
	<path id="rect3163-52-9-8-1-1-2-7-3-6-4-6-1-8-8-5" class="st0" d="M327.5,535.9c-1.7,0-3.1,1.9-3.1,4.1c0,0.9,0.2,1.8,0.6,2.5
		c-1,1-1.7,2.6-1.7,4.4c0,3.1,1.9,5.5,4.2,5.5c2.3,0,4.2-2.5,4.2-5.5c0-1.8-0.7-3.4-1.7-4.4c0.4-0.7,0.6-1.5,0.6-2.5
		C330.6,537.7,329.2,535.9,327.5,535.9z M327.5,538.6c0.6,0,1,0.6,1,1.4c0,0.8-0.5,1.4-1,1.4c-0.6,0-1-0.6-1-1.4
		C326.5,539.3,326.9,538.6,327.5,538.6z M327.3,544.2c0.1,0,0.1,0,0.2,0c1.2,0,2.1,1.2,2.1,2.8c0,1.5-0.9,2.8-2.1,2.8
		c-1.2,0-2.1-1.2-2.1-2.8C325.4,545.5,326.2,544.3,327.3,544.2z"/>
	<path id="rect3163-52-9-8-1-1-2-7-3-6-4-6-1-8-8-2-1" class="st1" d="M320.2,523.4c-0.9,0-1.6,0.9-1.6,2.1c0,0.5,0.1,0.9,0.3,1.2
		c-0.5,0.5-0.8,1.3-0.8,2.2c0,1.5,0.9,2.8,2.1,2.8s2.1-1.2,2.1-2.8c0-0.9-0.3-1.7-0.8-2.2c0.2-0.3,0.3-0.8,0.3-1.2
		C321.8,524.3,321.1,523.4,320.2,523.4z M320.2,524.8c0.3,0,0.5,0.3,0.5,0.7c0,0.4-0.2,0.7-0.5,0.7c-0.3,0-0.5-0.3-0.5-0.7
		C319.7,525.1,319.9,524.8,320.2,524.8z M320.1,527.6c0,0,0.1,0,0.1,0c0.6,0,1,0.6,1,1.4s-0.5,1.4-1,1.4c-0.6,0-1-0.6-1-1.4
		C319.2,528.2,319.6,527.6,320.1,527.6z"/>
	<path id="rect3163-52-9-8-1-1-2-7-3-6-4-6-1-8-8-2-1-1" class="st1" d="M334.8,564.9c-0.9,0-1.6-0.9-1.6-2.1c0-0.5,0.1-0.9,0.3-1.2
		c-0.5-0.5-0.8-1.3-0.8-2.2c0-1.5,0.9-2.8,2.1-2.8c1.2,0,2.1,1.2,2.1,2.8c0,0.9-0.3,1.7-0.8,2.2c0.2,0.3,0.3,0.8,0.3,1.2
		C336.4,564,335.7,564.9,334.8,564.9z M334.8,563.5c0.3,0,0.5-0.3,0.5-0.7c0-0.4-0.2-0.7-0.5-0.7c-0.3,0-0.5,0.3-0.5,0.7
		C334.3,563.2,334.5,563.5,334.8,563.5z M334.7,560.8c0,0,0.1,0,0.1,0c0.6,0,1-0.6,1-1.4c0-0.8-0.5-1.4-1-1.4s-1,0.6-1,1.4
		C333.8,560.1,334.2,560.7,334.7,560.8z"/>
</g>
</svg>
