<?xml version="1.0" encoding="utf-8"?>
<!-- Generator: Adobe Illustrator 16.0.0, SVG Export Plug-In . SVG Version: 6.00 Build 0)  -->
<!DOCTYPE svg PUBLIC "-//W3C//DTD SVG 1.1//EN" "http://www.w3.org/Graphics/SVG/1.1/DTD/svg11.dtd">
<svg version="1.1" id="Capa_1" xmlns="http://www.w3.org/2000/svg" xmlns:xlink="http://www.w3.org/1999/xlink" x="0px" y="0px"
	 width="100px" height="200px" viewBox="0 0 50 100" style="enable-background:new 0 0 50 100;" xml:space="preserve">
<style type="text/css">
<![CDATA[
	.st0{fill:#FF5555;}
	.st1{fill:#FFFFFF;}
	.st2{fill:#FFFFFF;stroke:#000000;stroke-width:0.1203;}
]]>
</style>
<g id="g6555" transform="matrix(4,0,0,4,-1260,-2077.0865)">
	<path id="rect2987-1" class="st2" d="M317.1,519.3h8.3c1.2,0,2.1,1.2,2.1,2.8v19.4c0,1.5-0.9,2.8-2.1,2.8h-8.3
		c-1.2,0-2.1-1.2-2.1-2.8V522C315,520.5,315.9,519.3,317.1,519.3z"/>
	<path id="color" class="st0" d="M317.1,520.7h8.3c0.6,0,1,0.6,1,1.4v19.4c0,0.8-0.5,1.4-1,1.4h-8.3c-0.6,0-1-0.6-1-1.4V522
		C316,521.3,316.5,520.7,317.1,520.7z"/>
	<path id="path3773-0-4-8-4-2" class="st1" d="M324.4,524.8c-4.6,0-8.3,5-8.3,11.1c0,1.5,0.9,2.8,2.1,2.8c4.6,0,8.3-5,8.3-11.1
		C326.5,526.1,325.5,524.8,324.4,524.8z"/>
	<path id="numero" class="st0" d="M321.3,527.6c-1.2,0-2.1,1.2-2.1,2.8v2.8c0,1.5,0.9,2.8,2.1,2.8c1.2,0,2.1-1.2,2.1-2.8v-2.8
		C323.3,528.8,322.4,527.6,321.3,527.6z M321.3,529c0.6,0,1,0.6,1,1.4v2.8c0,0.8-0.5,1.4-1,1.4c-0.6,0-1-0.6-1-1.4v-2.8
		C320.2,529.6,320.7,529,321.3,529z"/>
	<path id="path3962-7-1" class="st1" d="M317.6,521.4c-0.6,0-1,0.6-1,1.4v1.4c0,0.8,0.5,1.4,1,1.4s1-0.6,1-1.4v-1.4
		C318.6,522,318.2,521.4,317.6,521.4z M317.6,522c0.3,0,0.5,0.3,0.5,0.7v1.4c0,0.4-0.2,0.7-0.5,0.7c-0.3,0-0.5-0.3-0.5-0.7v-1.4
		C317.1,522.4,317.3,522,317.6,522z"/>
	<path id="path3962-7-1-2" class="st1" d="M324.9,538c-0.6,0-1,0.6-1,1.4v1.4c0,0.8,0.5,1.4,1,1.4c0.6,0,1-0.6,1-1.4v-1.4
		C325.9,538.6,325.5,538,324.9,538z M324.9,538.7c0.3,0,0.5,0.3,0.5,0.7v1.4c0,0.4-0.2,0.7-0.5,0.7c-0.3,0-0.5-0.3-0.5-0.7v-1.4
		C324.4,539,324.6,538.7,324.9,538.7z"/>
</g>
</svg>
