<?xml version="1.0" encoding="utf-8"?>
<!-- Generator: Adobe Illustrator 16.0.0, SVG Export Plug-In . SVG Version: 6.00 Build 0)  -->
<!DOCTYPE svg PUBLIC "-//W3C//DTD SVG 1.1//EN" "http://www.w3.org/Graphics/SVG/1.1/DTD/svg11.dtd">
<svg version="1.1" id="Capa_1" xmlns="http://www.w3.org/2000/svg" xmlns:xlink="http://www.w3.org/1999/xlink" x="0px" y="0px"
	 width="100px" height="200px" viewBox="0 0 100 200" style="enable-background:new 0 0 100 200;" xml:space="preserve">
<style type="text/css">
<![CDATA[
	.st0{fill:#FF5555;}
	.st1{fill:#FFFFFF;}
	.st2{fill:#FFFFFF;stroke:#000000;stroke-width:0.24;}
]]>
</style>
<g id="g6563" transform="matrix(4,0,0,4,-1260,-2077.0865)">
	<path id="rect2987" class="st2" d="M319.2,519.5h16.7c2.3,0,4.2,2.5,4.2,5.5v38.7c0,3.1-1.9,5.5-4.2,5.5h-16.7
		c-2.3,0-4.2-2.5-4.2-5.5V525C315,522,316.9,519.5,319.2,519.5z"/>
	<path id="rect3757" class="st0" d="M319.2,522.3h16.7c1.2,0,2.1,1.2,2.1,2.8v38.7c0,1.5-0.9,2.8-2.1,2.8h-16.7
		c-1.2,0-2.1-1.2-2.1-2.8V525C317.1,523.5,318,522.3,319.2,522.3z"/>
	<path id="path3773-0-4-8-4" class="st1" d="M333.8,530.6c-9.2,0-16.7,9.9-16.7,22.1c0,3.1,1.9,5.5,4.2,5.5
		c9.2,0,16.7-9.9,16.7-22.1C337.9,533.1,336.1,530.6,333.8,530.6z"/>
	<path id="rect3921" class="st0" d="M326.7,536.1l-2.1,2.8v3.3l2.1-2.8v13.3h2.1v-16.6H326.7z"/>
	<path id="rect3921-5" class="st1" d="M319.2,523.7l-1,1.4v1.7l1-1.4v6.6h1v-8.3H319.2z"/>
	<path id="rect3921-5-5" class="st1" d="M335.8,565.1l1-1.4v-1.7l-1,1.4v-6.6h-1v8.3H335.8z"/>
</g>
</svg>
