<?xml version="1.0" encoding="utf-8"?>
<!-- Generator: Adobe Illustrator 16.0.0, SVG Export Plug-In . SVG Version: 6.00 Build 0)  -->
<!DOCTYPE svg PUBLIC "-//W3C//DTD SVG 1.1//EN" "http://www.w3.org/Graphics/SVG/1.1/DTD/svg11.dtd">
<svg version="1.1" id="Capa_1" xmlns="http://www.w3.org/2000/svg" xmlns:xlink="http://www.w3.org/1999/xlink" x="0px" y="0px"
	 width="100px" height="200px" viewBox="0 0 100 200" style="enable-background:new 0 0 100 200;" xml:space="preserve">
<style type="text/css">
<![CDATA[
	.st0{fill:#FF5555;}
	.st1{fill:#FFFFFF;}
	.st2{fill:#FFFFFF;stroke:#000000;stroke-width:0.2408;}
]]>
</style>
<g id="g6587" transform="matrix(4,0,0,4,-1260,-2077.0865)">
	<path id="rect2987-8-5-0" class="st2" d="M319.1,519.2h16.7c2.3,0,4.2,2.5,4.2,5.6v38.9c0,3.1-1.9,5.6-4.2,5.6h-16.7
		c-2.3,0-4.2-2.5-4.2-5.6v-38.9C315,521.7,316.8,519.2,319.1,519.2z"/>
	<path id="rect3757-26-33-8" class="st0" d="M319.1,522h16.7c1.2,0,2.1,1.2,2.1,2.8v38.9c0,1.5-0.9,2.8-2.1,2.8h-16.7
		c-1.2,0-2.1-1.2-2.1-2.8v-38.9C317,523.3,318,522,319.1,522z"/>
	<path id="path3773-0-4-8-4-60-3-8" class="st1" d="M333.7,530.3c-9.2,0-16.7,9.9-16.7,22.2c0,3.1,1.9,5.6,4.2,5.6
		c9.2,0,16.7-9.9,16.7-22.2C337.9,532.8,336,530.3,333.7,530.3z"/>
	<path id="rect3980-7-6-2-9-5-60-2" class="st0" d="M327,535.9l-4.1,11.1v2.8h5v2.8h2.1v-2.8h1.3V547H330v-5.6h-2.1v5.6h-2.8
		l4.1-11.1L327,535.9z"/>
	<path id="rect3980-7-6-2-9-5-60-5-3" class="st1" d="M320.1,523.4l-2,5.6v1.4h2.5v1.4h1v-1.4h0.6V529h-0.6v-2.8h-1v2.8h-1.4l2-5.6
		H320.1z"/>
	<path id="rect3980-7-6-2-9-5-60-5-3-9" class="st1" d="M334.8,565.1l2-5.6v-1.4h-2.5v-1.4h-1v1.4h-0.6v1.4h0.6v2.8h1v-2.8h1.4
		l-2,5.6H334.8z"/>
</g>
</svg>
